<svg id="Layer_1" data-name="Layer 1" xmlns="http://www.w3.org/2000/svg" viewBox="0 0 2636 490.56"><defs><style>.cls-1{stroke:#cfcfce;stroke-miterlimit:10;stroke-width:2px;}</style></defs><title>mountains</title><path class="cls-1" d="M0,372s121.87,0,140.5,25l40.36,26.73h96.24l15.52,32.08c46.57,0,57.38-42.67,57.38-42.67S402.69,388,412,388s26.53-39.14,57.57-30.22,95.81-1.49,95.81-1.49L618.59,372a334.35,334.35,0,0,0,65.19,25C721.67,407.26,808,372,808,372s-1.88-10.72,55.57,16,120.79,51.76,120.79,51.76,75.11-31.79,84.42-33.72,68.3,0,68.3,0,41.51-16.4,53.75-30.55c17.61-20.35,65.2-19.72,65.2-19.72s72,9.06,72,32.22,76.73,22.63,76.73,22.63l179.36-4.59,52.78-75s149-32.08,184.3-53.48c63.74-38.67,157.2,12.49,157.2,12.49v57l152.12-3.56,127.29,46.34s107.54-19.6,89.47-53.47S2634,358.22,2634,358.22v393L0,751.71V372Z" transform="translate(1 -262.15)"/><line class="cls-1" x1="181.85" y1="159.62" x2="181.85" y2="204.17"/><line class="cls-1" x1="278.09" y1="159.62" x2="281.2" y2="321.8"/><line class="cls-1" x1="566.38" y1="92.18" x2="529.56" y2="159.62"/><line class="cls-1" x1="985.33" y1="175.66" x2="985.33" y2="299.5"/><line class="cls-1" x1="1069.75" y1="141.94" x2="1060.43" y2="223.78"/><line class="cls-1" x1="1138.05" y1="141.94" x2="1147.36" y2="245.06"/><line class="cls-1" x1="461.07" y1="91.02" x2="445.55" y2="344.15"/><line class="cls-1" x1="529.56" y1="159.62" x2="656.85" y2="204.17"/><line class="cls-1" x1="684.79" y1="132.88" x2="700.31" y2="181.9"/><line class="cls-1" x1="1585.1" y1="141.94" x2="1556" y2="261.21"/><line class="cls-1" x1="1637.87" y1="66.94" x2="1644.08" y2="134.67"/><line class="cls-1" x1="1979.37" y1="82.98" x2="1973.16" y2="271.9"/><line class="cls-1" x1="1822.17" y1="13.45" x2="1796.2" y2="91.89"/><line class="cls-1" x1="2131.49" y1="79.42" x2="2131.49" y2="193.5"/><line class="cls-1" x1="2258.78" y1="125.75" x2="2159.78" y2="318.34"/><line class="cls-1" x1="2348.25" y1="72.29" x2="2417.76" y2="115.06"/><line class="cls-1" x1="2367.43" y1="177.44" x2="2417.76" y2="115.06"/><line class="cls-1" x1="1252.51" y1="96.65" x2="1255" y2="222.05"/></svg>